PathFileType	4	(X/Y/Z)	Walk2.trc
DataRate	CameraRate	NumFrames	NumMarkers	Units	OrigDataRate	OrigDataStartFrame	OrigNumFrames
200.000000	200.000000	7	59	mm	200.000000	202	485
Frame#	Times		LBHD		C7		T10		RBack		LPSI		RPSI		RCAR		LElbowM		LMT1		LLFC		RWRR		LFHD		LUA1		RUA1		RFA1		CLAV		LCAR		RFHD		RElbowM		LWRU		LACR1		RBHD		RACR1		RTH3		LFA1		RWRU		RTH4		RTH2		RTB1		RTB4		RCAL		RToe		RTB3		RLFC		RMT1		RMT5		LWRR		RElbow		RTB2		LTH4		RTH1		LTH1		LTB3		STRN		LElbow		RMMAL		LTH3		RASI		LTH2		LCAL		LASI		LLMAL		RLMAL		LTB2		LTB4		LMT5		LMMAL		LToe		LTB1
			X1	Y1	Z1	X2	Y2	Z2	X3	Y3	Z3	X4	Y4	Z4	X5	Y5	Z5	X6	Y6	Z6	X7	Y7	Z7	X8	Y8	Z8	X9	Y9	Z9	X10	Y10	Z10	X11	Y11	Z11	X12	Y12	Z12	X13	Y13	Z13	X14	Y14	Z14	X15	Y15	Z15	X16	Y16	Z16	X17	Y17	Z17	X18	Y18	Z18	X19	Y19	Z19	X20	Y20	Z20	X21	Y21	Z21	X22	Y22	Z22	X23	Y23	Z23	X24	Y24	Z24	X25	Y25	Z25	X26	Y26	Z26	X27	Y27	Z27	X28	Y28	Z28	X29	Y29	Z29	X30	Y30	Z30	X31	Y31	Z31	X32	Y32	Z32	X33	Y33	Z33	X34	Y34	Z34	X35	Y35	Z35	X36	Y36	Z36	X37	Y37	Z37	X38	Y38	Z38	X39	Y39	Z39	X40	Y40	Z40	X41	Y41	Z41	X42	Y42	Z42	X43	Y43	Z43	X44	Y44	Z44	X45	Y45	Z45	X46	Y46	Z46	X47	Y47	Z47	X48	Y48	Z48	X49	Y49	Z49	X50	Y50	Z50	X51	Y51	Z51	X52	Y52	Z52	X53	Y53	Z53	X54	Y54	Z54	X55	Y55	Z55	X56	Y56	Z56	X57	Y57	Z57	X58	Y58	Z58	X59	Y59	Z59

202	1.01	-589.27	1458.8	-73.673	-616.1	1328.1	-0.79933	-651.39	1059.8	-18.93	-636.01	1227	128.92	-663.92	861.97	-78.396	-680.59	883.18	16.883	-280.25	784.84	252.83	-656.7	969.98	-213.87	-130.23	97.759	-60.605	-355.44	449.99	-148.52	-284.36	831.32	208.52	-416.24	1463.1	-55.63	-575.06	1116.6	-259.59	-495.8	1113.2	224.17	-410.12	861.87	255.36	-489.99	1248.8	-2.1986	-552.01	732.74	-368.64	-410.32	1472.9	21.445	-508.51	920.36	188.54	-596.76	772.22	-345.76	-538.97	1275.5	-167.71	-588.67	1467.3	49.398	-536.9	1264.9	151.39	-632.05	540.9	141.47	-619.69	887.93	-322.18	-337.64	782.35	227.95	-607.5	629.3	169.47	-534.04	617.03	142.21	-671.82	317.64	32.237	-717.82	237.83	31.801	-880.64	79.246	48.526	-682.52	27.574	-13.411	-752.86	150.89	24.506	-646.96	440.7	119.86	-736.32	47.424	-11.453	-749.33	35.971	47.604	-529.59	764.69	-316.77	-474.55	972.53	262.27	-736.45	242.38	100.25	-418.5	641.62	-182.78	-582.06	710.7	197.56	-464.79	720.26	-207.35	-229.22	186.26	-60.704	-428.8	1143	-7.2138	-635.72	1009.1	-281.39	-816.95	97.582	-12.042	-376.83	559.28	-158.28	-459.66	853.49	102.85	-368.26	682.53	-148.24	-267.49	27.376	-58.573	-454.54	843.11	-176.83	-240.47	75.462	-102.21	-813.29	82.266	65.225	-288.37	260.68	-132.61	-264.44	270.54	-66.239	-145.97	72.924	-112.71	-221.78	88.557	-26.191	-81.152	99.897	-75.913	-282.2	360.65	-70.076
203	1.015	-582.45	1458.6	-74.675	-609.25	1327.7	-1.8864	-644.01	1059.4	-19.452	-629.01	1226.8	128.02	-656.41	862.18	-78.92	-673.26	883.14	16.436	-274.09	784.35	251.8	-649.78	969.37	-214.32	-127.07	94.445	-59.241	-349.09	449.26	-148.04	-278.25	830.72	207.47	-409.44	1463	-56.46	-568.18	1115.9	-260.3	-488.78	1113.3	223.38	-403.74	861.69	254.73	-482.96	1248.6	-3.0935	-545.89	732.01	-369.35	-403.57	1472.7	20.588	-502.34	920.3	188.29	-590.5	771.54	-346.3	-532.01	1274.9	-168.71	-581.95	1467	48.399	-529.92	1264.9	150.63	-625.98	540.59	141.27	-613.21	887.29	-322.72	-331.58	781.94	227.15	-601.38	628.98	169.36	-527.86	616.42	142.15	-667.25	317.52	32.099	-714.33	238.35	31.699	-879.31	82.298	48.432	-682.6	27.546	-13.548	-750.59	151.86	24.482	-641.12	440.57	120.2	-735.73	47.765	-11.557	-748.85	36.393	47.539	-523.19	763.93	-317.64	-467.71	972.58	261.66	-732.87	243.08	100.19	-411.7	641.01	-182.6	-575.89	710.37	197.4	-457.88	719.74	-207.09	-225.27	184.61	-59.618	-421.63	1142.9	-7.9578	-629.01	1008.5	-281.88	-815.33	99.431	-12.002	-370.14	558.6	-158.06	-452.46	853.49	102.65	-360.81	681.87	-148.92	-265.54	26.831	-58.015	-446.69	843.19	-177.28	-237.6	74.1	-101.33	-812	83.767	64.818	-283.5	259.58	-131.65	-259.7	269.21	-65.262	-143.2	69.936	-111.41	-219	86.776	-25.2	-77.689	95.533	-74.361	-276.68	359.45	-69.124
204	1.02	-575.61	1458.4	-75.712	-602.37	1327.4	-3.0188	-636.58	1059	-19.981	-622	1226.7	127.09	-648.89	862.48	-79.378	-665.9	883.19	16.067	-268.1	783.83	250.82	-642.8	968.8	-214.76	-124.15	91.095	-57.989	-342.84	448.61	-147.55	-272.29	830.11	206.46	-402.61	1462.9	-57.293	-561.23	1115.3	-261.04	-481.78	1113.4	222.58	-397.49	861.54	254.11	-475.91	1248.4	-4.0257	-539.75	731.3	-370.02	-396.81	1472.6	19.724	-496.28	920.31	188.04	-584.19	770.88	-346.79	-525.03	1274.4	-169.76	-575.22	1466.8	47.366	-522.91	1265	149.78	-619.69	540.29	141.07	-606.67	886.67	-323.24	-325.68	781.53	226.38	-595.08	628.7	169.24	-521.5	615.9	142.09	-662.47	317.45	31.986	-710.65	238.94	31.617	-877.77	85.572	48.315	-682.7	27.513	-13.696	-748.13	152.93	24.477	-635.01	440.47	120.6	-735.07	48.137	-11.673	-748.32	36.866	47.467	-516.75	763.17	-318.47	-460.96	972.69	261.06	-729.09	243.87	100.16	-404.87	640.5	-182.4	-569.58	710.09	197.25	-450.87	719.35	-206.83	-221.52	183.02	-58.611	-414.41	1142.9	-8.7496	-622.2	1007.9	-282.37	-813.52	101.41	-11.947	-363.49	557.99	-157.81	-445.25	853.57	102.53	-353.35	681.28	-149.53	-263.88	26.431	-57.55	-438.8	843.22	-177.46	-234.98	72.822	-100.53	-810.55	85.606	64.741	-278.83	258.55	-130.73	-255.13	267.95	-64.342	-140.71	66.904	-110.2	-216.44	85.048	-24.302	-74.442	91.046	-72.925	-271.31	358.33	-68.22
205	1.025	-568.74	1458.4	-76.781	-595.47	1327.3	-4.1933	-629.11	1058.7	-20.519	-614.97	1226.7	126.11	-641.36	862.87	-79.767	-658.53	883.33	15.78	-262.28	783.28	249.88	-635.74	968.29	-215.2	-121.42	87.765	-56.855	-336.7	448.07	-147.09	-266.47	829.47	205.49	-395.77	1462.9	-58.129	-554.2	1114.7	-261.79	-474.83	1113.6	221.76	-391.38	861.42	253.5	-468.82	1248.4	-4.9947	-533.58	730.59	-370.64	-390.04	1472.6	18.853	-490.32	920.41	187.81	-577.85	770.22	-347.23	-518.02	1273.9	-170.86	-568.49	1466.7	46.301	-515.89	1265.2	148.87	-613.16	540.02	140.89	-600.07	886.08	-323.72	-319.94	781.11	225.64	-588.59	628.45	169.12	-514.95	615.46	142.03	-657.45	317.43	31.913	-706.73	239.62	31.564	-876.01	89.081	48.169	-682.81	27.475	-13.854	-745.47	154.13	24.496	-628.63	440.37	121.04	-734.35	48.544	-11.804	-747.72	37.395	47.384	-510.26	762.41	-319.25	-454.3	972.86	260.44	-725.07	244.73	100.18	-398.02	640.12	-182.18	-563.1	709.85	197.09	-443.77	719.13	-206.58	-217.94	181.53	-57.7	-407.15	1143	-9.5864	-615.3	1007.3	-282.87	-811.51	103.54	-11.877	-356.88	557.48	-157.53	-438.02	853.74	102.49	-345.89	680.78	-150.05	-262.46	26.187	-57.186	-430.87	843.19	-177.34	-232.57	71.655	-99.847	-808.9	87.794	64.997	-274.33	257.63	-129.88	-250.7	266.79	-63.495	-138.45	63.88	-109.08	-214.05	83.411	-23.51	-71.38	86.505	-71.602	-266.07	357.3	-67.381
206	1.03	-561.85	1458.5	-77.879	-588.54	1327.2	-5.4056	-621.62	1058.5	-21.065	-607.94	1226.8	125.1	-633.84	863.35	-80.086	-651.17	883.54	15.577	-256.63	782.72	248.99	-628.62	967.83	-215.64	-118.87	84.503	-55.841	-330.67	447.65	-146.65	-260.79	828.81	204.57	-388.91	1463.1	-58.967	-547.1	1114.2	-262.56	-467.91	1113.8	220.92	-385.39	861.35	252.91	-461.71	1248.4	-5.9985	-527.38	729.9	-371.22	-383.25	1472.8	17.976	-484.47	920.6	187.58	-571.46	769.59	-347.62	-510.99	1273.5	-172	-561.74	1466.7	45.209	-508.87	1265.4	147.9	-606.39	539.77	140.72	-593.4	885.52	-324.18	-314.37	780.7	224.95	-581.9	628.24	168.99	-508.2	615.11	141.96	-652.17	317.46	31.895	-702.57	240.37	31.549	-874	92.835	47.989	-682.93	27.434	-14.022	-742.57	155.44	24.549	-621.94	440.28	121.53	-733.54	48.991	-11.948	-747.07	37.986	47.288	-503.73	761.64	-320	-447.74	973.1	259.82	-720.81	245.7	100.24	-391.16	639.88	-181.94	-556.48	709.66	196.94	-436.59	719.07	-206.34	-214.5	180.15	-56.895	-399.86	1143.2	-10.464	-608.3	1006.8	-283.36	-809.25	105.8	-11.79	-350.34	557.1	-157.23	-430.8	853.99	102.54	-338.45	680.38	-150.47	-261.24	26.097	-56.927	-422.91	843.11	-176.92	-230.33	70.618	-99.278	-807.04	90.328	65.568	-269.96	256.84	-129.11	-246.41	265.75	-62.734	-136.39	60.912	-108.06	-211.8	81.899	-22.833	-68.485	81.972	-70.383	-260.96	356.39	-66.622
207	1.035	-554.94	1458.7	-79.001	-581.57	1327.2	-6.6507	-614.12	1058.5	-21.619	-600.9	1227	124.04	-626.35	863.92	-80.331	-643.81	883.83	15.462	-251.15	782.13	248.15	-621.42	967.44	-216.08	-116.48	81.348	-54.941	-324.75	447.37	-146.27	-255.26	828.14	203.7	-382.03	1463.3	-59.807	-539.91	1113.7	-263.35	-461.03	1114.2	220.07	-379.53	861.32	252.32	-454.59	1248.6	-7.0338	-521.15	729.23	-371.75	-376.45	1473	17.095	-478.72	920.88	187.34	-565.03	768.99	-347.96	-503.94	1273.2	-173.18	-554.98	1466.9	44.093	-501.83	1265.8	146.87	-599.37	539.53	140.57	-586.66	884.99	-324.61	-308.96	780.3	224.29	-574.99	628.06	168.87	-501.24	614.86	141.89	-646.61	317.53	31.954	-698.13	241.21	31.586	-871.7	96.842	47.77	-683.06	27.392	-14.197	-739.42	156.87	24.643	-614.93	440.17	122.05	-732.65	49.485	-12.105	-746.34	38.647	47.177	-497.16	760.89	-320.69	-441.28	973.4	259.19	-716.29	246.76	100.35	-384.31	639.81	-181.68	-549.69	709.52	196.78	-429.34	719.22	-206.12	-211.22	178.91	-56.205	-392.53	1143.6	-11.379	-601.19	1006.3	-283.86	-806.73	108.22	-11.686	-343.86	556.85	-156.91	-423.58	854.31	102.68	-331.04	680.1	-150.79	-260.16	26.15	-56.771	-414.95	842.98	-176.21	-228.24	69.718	-98.832	-804.95	93.196	66.417	-265.71	256.19	-128.45	-242.25	264.84	-62.069	-134.48	58.04	-107.13	-209.68	80.531	-22.274	-65.755	77.504	-69.255	-255.97	355.61	-65.954
208	1.04	-548	1459	-80.143	-574.58	1327.4	-7.9229	-606.61	1058.6	-22.179	-593.85	1227.3	122.95	-618.88	864.58	-80.501	-636.47	884.18	15.436	-245.84	781.54	247.37	-614.14	967.12	-216.51	-114.26	78.331	-54.149	-318.94	447.25	-145.96	-249.87	827.47	202.87	-375.12	1463.7	-60.649	-532.66	1113.3	-264.15	-454.2	1114.6	219.21	-373.8	861.35	251.75	-447.44	1248.9	-8.0952	-514.88	728.6	-372.23	-369.63	1473.4	16.211	-473.06	921.27	187.1	-558.55	768.41	-348.26	-496.87	1273	-174.39	-548.21	1467.1	42.959	-494.79	1266.2	145.79	-592.09	539.31	140.46	-579.84	884.51	-325.01	-303.72	779.91	223.68	-567.88	627.92	168.74	-494.07	614.7	141.83	-640.73	317.63	32.111	-693.39	242.13	31.687	-869.11	101.11	47.508	-683.2	27.353	-14.376	-735.99	158.41	24.788	-607.59	440.05	122.63	-731.66	50.034	-12.271	-745.54	39.387	47.051	-490.55	760.14	-321.34	-434.91	973.77	258.54	-711.5	247.94	100.54	-377.48	639.93	-181.41	-542.74	709.43	196.63	-422.04	719.57	-205.91	-208.07	177.81	-55.63	-385.19	1144.1	-12.326	-593.99	1005.8	-284.34	-803.91	110.79	-11.562	-337.47	556.76	-156.6	-416.38	854.7	102.9	-323.71	679.96	-150.97	-259.22	26.328	-56.714	-407	842.82	-175.26	-226.28	68.953	-98.507	-802.61	96.371	67.487	-261.55	255.69	-127.9	-238.21	264.07	-61.504	-132.72	55.294	-106.3	-207.69	79.317	-21.833	-63.197	73.149	-68.208	-251.1	354.96	-65.384
